<svg width="1367" height="208" viewBox="0 0 1367 208" fill="none" xmlns="http://www.w3.org/2000/svg">
<path d="M262.843 100.213C259.333 103.213 254.537 104.707 248.453 104.707H229.845V71.8799H248.453C254.444 71.8799 259.223 73.2399 262.787 75.9733C266.351 78.7199 268.124 82.8132 268.124 88.2932C268.124 93.2533 266.369 97.2133 262.843 100.213ZM275.067 65.7733C272.081 63.0933 268.441 61.0399 264.167 59.5999C259.893 58.1866 255.097 57.4799 249.833 57.4799H214V148.333H229.845V119.12H247.931C252.951 119.12 257.672 118.453 262.096 117.107C266.52 115.76 270.383 113.8 273.687 111.2C276.971 108.613 279.584 105.36 281.488 101.467C283.391 97.5599 284.343 93.0666 284.343 87.9733C284.343 83.3066 283.54 79.1066 281.953 75.3733C280.349 71.6533 278.053 68.4533 275.067 65.7733Z" fill="#1B1918"/>
<path d="M497.517 100.213C493.99 103.213 489.193 104.707 483.109 104.707H464.501V71.8799H483.109C489.1 71.8799 493.878 73.2399 497.442 75.9733C501.008 78.7199 502.78 82.8132 502.78 88.2932C502.78 93.2533 501.026 97.2133 497.517 100.213ZM509.722 65.7733C506.737 63.0933 503.116 61.0399 498.824 59.5999C494.55 58.1866 489.753 57.4799 484.49 57.4799H448.656V148.333H464.501V119.12H482.586C487.608 119.12 492.329 118.453 496.752 117.107C501.176 115.76 505.038 113.8 508.342 111.2C511.626 108.613 514.24 105.36 516.144 101.467C518.048 97.5599 519 93.0666 519 87.9733C519 83.3066 518.216 79.1066 516.61 75.3733C515.005 71.6533 512.709 68.4533 509.722 65.7733Z" fill="#1B1918"/>
<path d="M578.442 109.64H624V95.2266H578.442V71.8799H629.841V57.4799H562.616V148.333H630.496V133.92H578.442V109.64Z" fill="#1B1918"/>
<path d="M1284.63 128.687H1309.46V121.865H1284.63V110.815H1312.64V104H1276V147H1313V140.178H1284.63V128.687" fill="#1B1918"/>
<path d="M692.664 102.507V71.8799H715.973C721.947 71.8799 726.593 73.1466 729.897 75.7199C733.2 78.2799 734.843 82.0933 734.843 87.1333C734.843 91.8133 733.144 95.5466 729.767 98.3333C726.388 101.107 721.833 102.507 716.105 102.507H692.664ZM738.147 110.24C740.796 108.627 743.073 106.667 744.959 104.4C746.861 102.093 748.355 99.4533 749.437 96.4666C750.52 93.4799 751.061 90.0933 751.061 86.2666C751.061 81.8666 750.296 77.8666 748.728 74.2666C747.179 70.6933 744.94 67.6666 742.047 65.1866C739.153 62.7199 735.608 60.8133 731.409 59.4666C727.209 58.1466 722.525 57.4799 717.317 57.4799H676.836V148.333H692.664V116.653H712.708L735.104 148.333H753.917L729.393 113.933C732.603 113.053 735.515 111.827 738.147 110.24Z" fill="#1B1918"/>
<path d="M854.905 132.04C850.91 134.147 846.152 135.213 840.628 135.213C836.297 135.213 832.285 134.373 828.608 132.693C824.932 130.987 821.758 128.68 819.07 125.72C816.402 122.8 814.312 119.36 812.837 115.427C811.381 111.48 810.636 107.267 810.636 102.773C810.636 98.2668 811.381 94.0668 812.837 90.1735C814.312 86.2668 816.402 82.8934 819.07 79.9868C821.758 77.0934 824.932 74.8001 828.608 73.1201C832.285 71.4134 836.297 70.5735 840.628 70.5735C845.816 70.5735 850.444 71.6268 854.513 73.6934C858.582 75.7601 862.426 78.4935 866.066 81.8668L876.312 70.0534C874.146 67.9868 871.852 66.0801 869.444 64.3468C867.017 62.6268 864.368 61.1335 861.512 59.8668C858.657 58.6134 855.521 57.6401 852.105 56.9468C848.69 56.2668 844.901 55.9068 840.758 55.9068C833.833 55.9068 827.506 57.1335 821.796 59.6001C816.085 62.0801 811.158 65.4401 807.014 69.7335C802.852 74.0135 799.624 79.0134 797.328 84.7201C795.052 90.4401 793.893 96.5334 793.893 103.027C793.893 109.6 795.07 115.747 797.402 121.453C799.736 127.16 802.965 132.107 807.07 136.307C811.176 140.507 816.048 143.827 821.665 146.24C827.302 148.667 833.442 149.88 840.105 149.88C844.341 149.88 848.205 149.507 851.713 148.773C855.222 148.027 858.45 146.947 861.381 145.533C864.33 144.107 867.074 142.413 869.63 140.467C872.188 138.533 874.633 136.293 876.965 133.787L866.7 123.387C862.818 127.027 858.88 129.907 854.905 132.04Z" fill="#1B1918"/>
<path d="M981.444 109.773C981.444 118.173 979.39 124.48 975.304 128.707C971.216 132.973 965.598 135.08 958.469 135.08C951.246 135.08 945.59 132.88 941.504 128.467C937.417 124.053 935.362 117.613 935.362 109.12V57.4799H919.537V109.773C919.537 116.36 920.433 122.12 922.261 127.107C924.072 132.067 926.666 136.253 930.045 139.627C933.422 142.987 937.492 145.533 942.25 147.213C947.009 148.907 952.329 149.747 958.208 149.747C964.18 149.747 969.573 148.907 974.37 147.213C979.166 145.533 983.254 142.973 986.632 139.56C990.01 136.147 992.622 131.88 994.489 126.773C996.337 121.68 997.27 115.747 997.27 108.987V57.4799H981.444V109.773Z" fill="#1B1918"/>
<path d="M1358.86 128.938C1358.86 132.943 1357.8 135.951 1355.7 137.966C1353.59 140.001 1350.7 141.006 1347.03 141.006C1343.32 141.006 1340.41 139.957 1338.3 137.852C1336.2 135.747 1335.14 132.676 1335.14 128.626V104H1327V128.938C1327 132.079 1327.46 134.825 1328.4 137.203C1329.33 139.569 1330.67 141.565 1332.41 143.174C1334.15 144.776 1336.24 145.991 1338.69 146.792C1341.14 147.599 1343.87 148 1346.9 148C1349.97 148 1352.75 147.599 1355.22 146.792C1357.68 145.991 1359.79 144.77 1361.53 143.142C1363.26 141.514 1364.61 139.48 1365.57 137.045C1366.52 134.616 1367 131.786 1367 128.562V104H1358.86V128.938Z" fill="#1B1918"/>
<path d="M1095.31 100.213C1091.8 103.213 1087 104.707 1080.92 104.707H1062.29V71.8799H1080.92C1086.91 71.8799 1091.69 73.2399 1095.25 75.9733C1098.8 78.7199 1100.59 82.8132 1100.59 88.2932C1100.59 93.2533 1098.84 97.2133 1095.31 100.213ZM1107.53 65.7733C1104.55 63.0933 1100.91 61.0399 1096.64 59.5999C1092.34 58.1866 1087.56 57.4799 1082.28 57.4799H1046.47V148.333H1062.29V119.12H1080.38C1085.42 119.12 1090.14 118.453 1094.56 117.107C1098.99 115.76 1102.85 113.8 1106.13 111.2C1109.44 108.613 1112.03 105.36 1113.95 101.467C1115.86 97.5599 1116.81 93.0666 1116.81 87.9733C1116.81 83.3066 1116.01 79.1066 1114.4 75.3733C1112.8 71.6533 1110.52 68.4533 1107.53 65.7733Z" fill="#1B1918"/>
<path d="M1222.78 112.44C1221.51 109.613 1219.68 107.16 1217.24 105.027C1214.81 102.92 1211.75 101.133 1208.07 99.6533C1204.38 98.1733 1200.16 96.8399 1195.38 95.6266C1191.05 94.5999 1187.47 93.5866 1184.65 92.6399C1181.83 91.6799 1179.61 90.6533 1178.01 89.5199C1176.4 88.3999 1175.3 87.1866 1174.7 85.8933C1174.09 84.5866 1173.79 83.04 1173.79 81.2133C1173.79 78.1866 1175.08 75.6133 1177.67 73.4933C1180.27 71.3733 1183.91 70.3199 1188.59 70.3199C1192.73 70.3199 1196.84 71.1199 1200.91 72.7199C1204.98 74.3333 1209.08 76.6399 1213.25 79.6666L1221.81 67.5866C1217.13 63.8799 1212.14 61.0399 1206.82 59.0933C1201.49 57.1333 1195.5 56.1733 1188.83 56.1733C1184.33 56.1733 1180.19 56.7999 1176.39 58.0533C1172.6 59.3066 1169.35 61.0933 1166.64 63.4266C1163.94 65.7733 1161.81 68.56 1160.28 71.8133C1158.73 75.0533 1157.94 78.6799 1157.94 82.6533C1157.94 86.8933 1158.62 90.4666 1159.96 93.4133C1161.3 96.3733 1163.26 98.8666 1165.82 100.947C1168.38 103.027 1171.55 104.747 1175.32 106.133C1179.09 107.533 1183.4 108.773 1188.27 109.893C1192.53 110.947 1195.96 111.933 1198.61 112.88C1201.26 113.84 1203.33 114.867 1204.87 115.933C1206.38 117.013 1207.42 118.2 1207.98 119.507C1208.54 120.8 1208.82 122.28 1208.82 123.92C1208.82 127.467 1207.38 130.28 1204.47 132.347C1201.58 134.427 1197.66 135.467 1192.73 135.467C1187.02 135.467 1181.91 134.467 1177.41 132.427C1172.91 130.387 1168.47 127.467 1164.05 123.653L1154.45 135.08C1159.9 140.027 1165.82 143.667 1172.22 146.053C1178.62 148.427 1185.34 149.613 1192.34 149.613C1197.1 149.613 1201.47 149.013 1205.44 147.8C1209.42 146.587 1212.82 144.813 1215.65 142.48C1218.49 140.133 1220.69 137.28 1222.28 133.92C1223.86 130.547 1224.67 126.693 1224.67 122.373C1224.67 118.56 1224.03 115.24 1222.78 112.44Z" fill="#1B1918"/>
<path d="M344.256 112.493L359.721 76.4134L375.313 112.493H344.256ZM352.632 57.4668L312.942 148.32H329.18L338.458 126.547H381.114L390.264 148.32H407.018L367.325 57.4668H352.632Z" fill="#1B1918"/>
<path d="M150.129 80.4667C150.129 165.787 44.3575 163.16 44.3575 163.16L0.00146484 207.52C0.00146484 207.52 0.00146484 128.56 0.00146484 59.4L51.3348 0.120026H51.4388C84.1081 1.1467 150.129 1.37338 150.129 80.4667Z" fill="#4468A5"/>
<path d="M51.4388 -9.53674e-05V59.3999H0.00146484L51.3348 0.119892L51.4388 -9.53674e-05Z" fill="#1B3E7D"/>
<path d="M0 70.24V59.4134C0.00133333 63 0.00136719 66.6133 0.00136719 70.24H0Z" fill="#C0DFE6"/>
<path d="M0.00136719 70.24C0.00136719 66.6133 0.00136719 63 0.00136719 59.4L51.4374 59.4134L0 70.24" fill="#315698"/>
</svg>
